<svg width="231" height="61" viewBox="0 0 231 61" fill="none" xmlns="http://www.w3.org/2000/svg">
<path d="M50.5483 7.77596C46.1176 2.98913 39.831 0 32.8584 0C21.403 0 11.8009 8.06751 9.23725 18.9233L12.5122 18.0002C12.6555 17.96 12.8038 18.0316 12.8635 18.1702C12.9233 18.3087 12.8742 18.4689 12.7476 18.5483C10.1389 20.192 7.47195 22.154 5.2242 24.1C-3.08692 31.4448 -1.68258 38.9051 10.8841 33.8241C18.9421 30.7443 15.9967 27.9962 14.9528 26.7852C14.8688 26.6879 14.8313 26.573 14.8409 26.4437C14.8506 26.3144 14.9047 26.2068 15.0019 26.1233C15.7243 25.5037 17.516 26.1367 18.5072 26.3855C19.9627 26.7512 21.4161 27.1546 22.862 27.5625C22.9987 27.6012 23.1323 27.5775 23.2482 27.494L31.1878 21.7723C31.3042 21.6883 31.3705 21.5683 31.3796 21.4236C31.3893 21.2788 31.3386 21.1506 31.2343 21.0522C30.0705 19.954 26.7647 17.1013 26.1683 16.5847C25.8721 16.3282 24.8647 15.4731 23.7965 14.547C22.7157 13.6105 21.5726 12.6014 21.041 12.0688C20.9402 11.9679 20.8942 11.8396 20.9063 11.6964C20.919 11.5532 20.9868 11.4352 21.1033 11.3539C22.5866 10.3195 25.857 12.1569 27.0618 12.7369C27.3215 12.8621 27.5817 12.9888 27.8415 13.1165C28.8575 13.6167 29.8761 14.1369 30.8977 14.6639C31.0394 14.737 31.1954 14.7329 31.3331 14.652L32.0778 14.2147C32.4382 14.003 32.9029 14.1297 33.111 14.4965C33.2497 14.7412 33.2406 15.0327 33.112 15.263C33.0482 15.3778 33.0346 15.5004 33.072 15.6271C33.1095 15.7533 33.1875 15.8481 33.3034 15.9079C34.1817 16.3601 35.0616 16.8083 35.9425 17.2435C36.2199 17.3805 36.7272 17.7179 37.0942 17.8148C37.24 17.8534 37.3823 17.822 37.4987 17.7246C39.7702 15.8347 44.2521 13.0094 47.1828 12.5649C48.8114 12.3176 50.4592 12.4876 50.9589 13.4884C50.9665 13.5039 50.9741 13.5173 50.9832 13.5317C51.5851 14.4723 50.9057 16.0093 49.8811 17.3208C48.0373 19.681 43.392 22.2173 40.6476 23.2743C40.5068 23.3284 40.4086 23.4381 40.3686 23.586C40.2679 23.9579 40.3013 24.5734 40.279 24.8866C40.2092 25.8802 40.1504 26.8795 40.0963 27.8798C40.0892 28.0117 40.1307 28.1276 40.2193 28.2239C40.3079 28.3202 40.4193 28.3697 40.5494 28.3707C40.8096 28.3728 41.0622 28.5103 41.2014 28.755C41.4095 29.1217 41.2849 29.5946 40.9245 29.8063L40.1798 30.2436C40.0421 30.3245 39.9606 30.4595 39.952 30.6212C39.874 32.082 39.7895 33.5356 39.6746 34.9645C39.5657 36.3167 39.4948 40.1171 37.8723 40.9062C37.7447 40.968 37.6106 40.9691 37.4825 40.9083C37.3544 40.8475 37.2684 40.7424 37.2329 40.6033C36.8598 39.1415 36.0938 34.6107 35.9531 33.8277C35.8119 33.0437 35.0368 28.7045 34.6839 27.1298C34.652 26.9882 34.568 26.88 34.4404 26.8162C34.3129 26.7523 34.1767 26.7502 34.0476 26.811L25.2064 30.9462C25.0773 31.0065 24.9908 31.1121 24.9548 31.2522C24.5787 32.73 24.1959 34.2125 23.7793 35.6779C23.4943 36.6814 23.3161 38.8999 22.4165 39.2105C22.1836 39.2909 21.9315 39.1369 21.8419 38.9035C19.3152 32.3416 13.6573 39.892 15.6484 42.0977C16.4473 42.9826 17.2563 43.8691 18.0718 44.7571C22.9172 50.0317 27.9943 55.3476 32.505 60.5661C32.5987 60.6743 32.7161 60.7366 32.8579 60.7371C32.9996 60.7376 33.1176 60.6758 33.2118 60.5681C40.1575 52.6093 52.9409 41.2998 56.3175 30.0613C57.2582 26.931 57.5594 22.751 56.6674 19.5821C56.356 18.4767 50.3782 21.7465 50.6865 21.0326C51.049 20.193 62.6102 15.1764 62.3936 9.65402C62.2756 6.6515 57.7988 5.28185 50.5483 7.77596Z" fill="#FF715B"/>
<path fill-rule="evenodd" clip-rule="evenodd" d="M169.71 14.9481L169.805 14.9879C170.393 15.2513 170.823 15.7177 171.047 16.2648C171.271 16.817 171.287 17.4529 171.041 18.0428C170.489 19.4683 169.84 21.1928 169.131 23.0784C166.542 29.9607 163.146 38.9906 160.696 43.4739C160.51 43.923 160.209 44.2894 159.839 44.5426C159.462 44.8008 159.014 44.9447 158.546 44.9447C158.064 44.9447 157.612 44.8018 157.231 44.5477C156.851 44.2915 156.546 43.923 156.36 43.4739C154.314 39.7297 152.557 34.8691 150.801 30.0079C149.273 25.781 147.746 21.5535 146.027 18.0592C145.793 17.4641 145.817 16.8211 146.043 16.2638C146.269 15.7096 146.7 15.236 147.281 14.9767L147.289 14.9747C147.89 14.7164 148.525 14.7369 149.075 14.9655C149.636 15.1992 150.109 15.6514 150.366 16.2454L158.546 36.3455C159.436 34.1597 160.367 31.9423 161.303 29.7127C163.197 25.2022 165.112 20.6416 166.754 16.1903C166.997 15.6299 167.45 15.2023 167.984 14.9747C168.519 14.744 169.138 14.7144 169.71 14.9481ZM199.533 40.0802H184.609V32.2057H197.437C198.088 32.2057 198.672 31.9423 199.096 31.5147C199.518 31.086 199.776 30.492 199.776 29.8275C199.776 29.1794 199.514 28.5792 199.087 28.1454C198.667 27.7188 198.086 27.4503 197.436 27.4503H184.608V19.6861H199.17C199.823 19.6861 200.408 19.4248 200.83 18.9951C201.251 18.5664 201.509 17.9714 201.509 17.3079C201.509 16.6445 201.251 16.0504 200.828 15.6207C200.406 15.1931 199.822 14.9297 199.171 14.9297H182.271C181.633 14.9297 181.043 15.1961 180.616 15.6299C180.197 16.0566 179.932 16.6475 179.932 17.3079V42.4573C179.932 43.1167 180.196 43.7076 180.616 44.1353C181.043 44.5691 181.633 44.8355 182.271 44.8355H199.533C200.185 44.8355 200.77 44.5721 201.19 44.1424C201.613 43.7127 201.872 43.1187 201.872 42.4573C201.872 41.7949 201.614 41.2009 201.192 40.7701C200.769 40.3425 200.185 40.0802 199.533 40.0802ZM230.32 40.8082C229.899 40.3795 229.314 40.1172 228.662 40.1172H215.255V17.3082C215.255 16.6468 214.997 16.0528 214.576 15.622C214.154 15.1933 213.57 14.931 212.917 14.931C212.28 14.931 211.689 15.1974 211.263 15.6312C210.843 16.0579 210.578 16.6488 210.578 17.3092V42.4953C210.578 43.1526 210.842 43.7426 211.265 44.1733C211.692 44.6071 212.282 44.8735 212.917 44.8735H228.662C229.314 44.8735 229.9 44.6102 230.32 44.1825C230.742 43.7538 231 43.1598 231 42.4953C231 41.8309 230.742 41.2358 230.32 40.8082ZM105.198 40.5185C104.737 40.1663 104.145 39.9857 103.533 40.0439C103.465 40.0428 103.286 40.0306 103.041 39.904C102.728 39.7407 102.325 39.4019 101.918 38.7068C101.353 37.6871 100.714 36.7379 100.019 35.8693C99.5089 35.2304 98.9678 34.6363 98.4056 34.0903L98.7188 33.9617C99.0963 33.7984 99.4567 33.6146 99.7981 33.4217L99.8041 33.4197C101.244 32.5807 102.351 31.4437 103.098 30.0545C103.841 28.6746 104.225 27.0548 104.225 25.239C104.225 24.4265 104.168 23.6427 104.046 22.8966C103.923 22.1515 103.733 21.4441 103.465 20.7838C103.236 20.1795 102.956 19.6141 102.628 19.0956C102.3 18.5781 101.913 18.0984 101.47 17.6595C100.911 17.093 100.251 16.5908 99.514 16.1754C98.7931 15.7702 98.006 15.4518 97.1768 15.2435C95.9861 14.9322 95.0695 14.9312 94.9179 14.9312H84.1928C83.5403 14.9312 82.955 15.1935 82.5353 15.6232C82.1117 16.0529 81.8536 16.647 81.8536 17.3084V42.4945C81.8536 43.1426 82.1157 43.7428 82.5423 44.1766C82.962 44.6032 83.5433 44.8727 84.1928 44.8727C84.8404 44.8727 85.4206 44.6042 85.8433 44.1745C86.27 43.7407 86.532 43.1416 86.532 42.4945V19.6865H94.9189C94.9812 19.6865 95.5092 19.7008 96.1949 19.8958C96.5614 19.9999 96.969 20.155 97.3655 20.3847C97.6838 20.5786 97.9619 20.7991 98.2028 21.0461C98.4468 21.2941 98.6546 21.5707 98.8293 21.8738C99.0702 22.2984 99.2489 22.7894 99.3684 23.3426C99.4909 23.9091 99.5501 24.5419 99.5501 25.238C99.5501 26.2352 99.3895 27.0548 99.0511 27.7162C98.7208 28.3633 98.2129 28.8777 97.5101 29.2849C96.8605 29.6575 96.0634 29.9392 95.1217 30.1311C94.163 30.325 93.0596 30.423 91.8127 30.423C91.2053 30.423 90.6411 30.6526 90.2205 31.0385C89.8028 31.4202 89.5237 31.956 89.4766 32.5736C89.4113 33.1849 89.578 33.7637 89.9103 34.2199C90.2446 34.6792 90.7475 35.014 91.3519 35.1314L91.4051 35.1426H91.4513C91.4724 35.1426 91.7515 35.2344 92.2856 35.4927C92.6119 35.6509 93.0034 35.8673 93.4341 36.1551L93.4381 36.1571C94.2985 36.7175 95.1016 37.4105 95.8405 38.226C96.5905 39.0528 97.2742 40.0071 97.8886 41.0758C98.4879 42.1352 99.1646 42.8824 99.8232 43.4141C100.49 43.952 101.138 44.2725 101.668 44.4715L101.69 44.4777C102.157 44.6308 102.578 44.7145 102.933 44.7553C103.521 44.8237 103.951 44.7808 104.132 44.7553C104.765 44.6604 105.304 44.3031 105.66 43.8122C106.015 43.3212 106.191 42.6905 106.098 42.0495C106.005 41.4105 105.668 40.8757 105.198 40.5185ZM130.277 15.2954C130.643 15.5271 130.948 15.8629 131.137 16.2702C132.489 19.0798 133.834 21.8973 135.18 24.7159L135.18 24.7163L135.18 24.7165L135.18 24.7166C137.848 30.3054 140.519 35.8986 143.246 41.443C143.514 42.0105 143.534 42.6423 143.344 43.2027C143.155 43.762 142.756 44.254 142.187 44.5428L142.137 44.5693C141.556 44.8643 140.923 44.8837 140.367 44.6918C139.811 44.501 139.327 44.0958 139.044 43.5415C138.428 42.2886 137.828 41.0174 137.23 39.7482L137.23 39.7481L137.23 39.7474L137.228 39.7451C136.924 39.0984 136.619 38.4523 136.312 37.8094C135.488 37.5869 134.64 37.4583 133.765 37.4267C132.809 37.392 131.816 37.4726 130.788 37.6665C129.826 37.8431 128.843 38.1126 127.838 38.4759C126.835 38.8383 125.811 39.2965 124.77 39.8528C123.556 40.506 122.461 41.2123 121.543 41.8615C119.742 43.1353 118.639 44.1764 118.616 44.1999C118.408 44.4111 118.152 44.5785 117.879 44.6928C117.597 44.8102 117.297 44.8725 117.011 44.8725C116.773 44.8725 116.517 44.8337 116.264 44.748C116.03 44.6694 115.803 44.551 115.6 44.3907C115.158 44.0539 114.855 43.5732 114.731 43.0485C114.607 42.528 114.655 41.9615 114.909 41.4451L126.934 16.2487C127.142 15.8486 127.446 15.5169 127.808 15.2883C128.172 15.0596 128.59 14.931 129.03 14.931C129.474 14.931 129.908 15.0627 130.277 15.2954ZM129.914 33.0031C130.741 32.8541 131.557 32.7499 132.365 32.703C132.854 32.6744 133.34 32.6663 133.823 32.6816L129.034 22.728L122.968 35.4721C124.045 34.9087 125.129 34.4279 126.212 34.0319C127.461 33.5747 128.7 33.2327 129.91 33.0051L129.914 33.0031Z" fill="#2C2C2C"/>
</svg>
