<svg width="50" height="50" viewBox="0 0 50 50" fill="none" xmlns="http://www.w3.org/2000/svg">
<rect width="50" height="50" rx="10" fill="#FFF8E3"/>
<path d="M24.5 12C17.6125 12 12 17.6125 12 24.5V27V32V33.25C12 35.3125 13.6875 37 15.75 37H17C19.0625 37 20.75 35.3125 20.75 33.25V29.5C20.75 27.4375 19.0625 25.75 17 25.75H14.5V24.5C14.5 18.9875 18.9875 14.5 24.5 14.5C30.0125 14.5 34.5 18.9875 34.5 24.5V25.75H32C29.9375 25.75 28.25 27.4375 28.25 29.5V33.25C28.25 35.3125 29.9375 37 32 37H33.25C35.3125 37 37 35.3125 37 33.25V32V27V24.5C37 17.6125 31.3875 12 24.5 12ZM17 28.25C17.6875 28.25 18.25 28.8125 18.25 29.5V33.25C18.25 33.9375 17.6875 34.5 17 34.5H15.75C15.0625 34.5 14.5 33.9375 14.5 33.25V32V28.25H17ZM34.5 33.25C34.5 33.9375 33.9375 34.5 33.25 34.5H32C31.3125 34.5 30.75 33.9375 30.75 33.25V29.5C30.75 28.8125 31.3125 28.25 32 28.25H34.5V32V33.25Z" fill="#FFC01E"/>
</svg>
