<svg width="50" height="50" viewBox="0 0 50 50" fill="none" xmlns="http://www.w3.org/2000/svg">
<rect width="50" height="50" rx="10" fill="#EDFAE3"/>
<path d="M25.4697 13C18.6295 13 13 18.6432 13 25.5C13 32.3568 18.6295 38 25.4697 38C32.3099 38 38 32.4175 38 25.5C38 18.5825 32.3705 13 25.4697 13ZM35.6392 24.4078H31.0993C30.8571 21.2524 29.8281 18.2791 28.0726 15.6699C32.1283 16.7015 35.155 20.1602 35.6392 24.4078ZM22.1404 26.6529H28.799C28.4964 29.7476 27.3462 32.6602 25.4697 35.1481C23.5932 32.6602 22.4431 29.7476 22.1404 26.6529ZM22.1404 24.4078C22.4431 21.3131 23.5932 18.4005 25.4697 15.9126C27.3462 18.4005 28.5569 21.3131 28.799 24.4078H22.1404ZM22.9274 15.6092C21.1719 18.2184 20.1429 21.1917 19.9007 24.3471H15.3608C15.7845 20.1602 18.8717 16.7015 22.9274 15.6092ZM15.3608 26.6529H19.9007C20.1429 29.8083 21.1719 32.7816 22.9274 35.3908C18.8717 34.3592 15.7845 30.9005 15.3608 26.6529ZM28.0726 35.4515C29.8281 32.8422 30.8571 29.8689 31.0993 26.7136H35.6392C35.155 30.9005 32.1283 34.3592 28.0726 35.4515Z" fill="#65CE54"/>
</svg>
