<svg width="79" height="14" viewBox="0 0 79 14" fill="none" xmlns="http://www.w3.org/2000/svg">
<path d="M7 0L8.5716 4.83688H13.6574L9.5429 7.82624L11.1145 12.6631L7 9.67376L2.8855 12.6631L4.4571 7.82624L0.342604 4.83688H5.4284L7 0Z" fill="#FFC01E"/>
<path d="M23 0L24.5716 4.83688H29.6574L25.5429 7.82624L27.1145 12.6631L23 9.67376L18.8855 12.6631L20.4571 7.82624L16.3426 4.83688H21.4284L23 0Z" fill="#FFC01E"/>
<path d="M39 0L40.5716 4.83688H45.6574L41.5429 7.82624L43.1145 12.6631L39 9.67376L34.8855 12.6631L36.4571 7.82624L32.3426 4.83688H37.4284L39 0Z" fill="#FFC01E"/>
<path d="M56 0L57.5716 4.83688H62.6574L58.5429 7.82624L60.1145 12.6631L56 9.67376L51.8855 12.6631L53.4571 7.82624L49.3426 4.83688H54.4284L56 0Z" fill="#FFC01E"/>
<path d="M72 0L73.5716 4.83688H78.6574L74.5429 7.82624L76.1145 12.6631L72 9.67376L67.8855 12.6631L69.4571 7.82624L65.3426 4.83688H70.4284L72 0Z" fill="#FFC01E"/>
</svg>
